<svg class="h-10 w-10" width="188" height="188" viewBox="0 0 188 188" fill="none" xmlns="http://www.w3.org/2000/svg">
      <path d="M186.81 101.19C190.781 49.9328 152.448 5.16126 101.19 1.19021C49.9328 -2.78083 5.16126 35.5524 1.19021 86.8098C-2.78083 138.067 35.5524 182.839 86.8098 186.81C138.067 190.781 182.839 152.448 186.81 101.19Z" fill="white"/>
      <path d="M93.6982 181.357C72.268 181.357 51.7868 173.382 36.0287 158.914C20.3666 144.532 10.675 124.989 8.73456 103.878L8.39339 100.115H180.709L180.218 103.996C177.521 125.138 167.35 144.649 151.581 158.925C135.61 173.393 115.054 181.357 93.7089 181.357H93.6982ZM16.0379 107.013C18.5647 124.967 27.2327 141.482 40.6879 153.839C55.1772 167.145 74.0059 174.47 93.6982 174.47C113.39 174.47 132.24 167.135 146.954 153.818C160.537 141.525 169.621 125.021 172.798 107.002H16.0379V107.013Z" fill="#0063A6"/>
      <path d="M167.051 166.623C167.051 164.544 168.64 162.87 170.815 162.87C172.99 162.87 174.536 164.544 174.536 166.623C174.536 168.702 172.926 170.355 170.804 170.355C168.682 170.355 167.051 168.713 167.051 166.623ZM173.757 166.623C173.757 164.768 172.638 163.531 170.804 163.531C168.97 163.531 167.851 164.768 167.851 166.623C167.851 168.478 168.96 169.715 170.804 169.715C172.649 169.715 173.757 168.457 173.757 166.623ZM170.847 164.533C171.892 164.533 172.275 165.056 172.275 165.663C172.275 166.271 171.817 166.644 171.348 166.772C171.433 166.836 171.529 166.911 171.604 166.985L172.723 168.393H171.764L170.687 166.964H170.1V168.393H169.354V164.544H170.836L170.847 164.533ZM170.111 166.399H170.527C171.156 166.367 171.486 166.239 171.486 165.738C171.486 165.333 171.38 165.13 170.644 165.13H170.111V166.399Z" fill="#0063A6"/>
      <path d="M129.213 129.893H117.197C115.235 122.782 103.091 118.794 91.5978 118.794C84.028 118.794 76.9699 120.084 76.9699 124.615C76.9699 133.145 133.531 126.311 133.531 145.598C133.531 156.42 115.502 160.077 97.4831 160.077C87.4184 160.077 73.7394 158.168 65.5191 155.055L65.6151 159.469H54.6441V141.738H66.7879C68.4831 148.839 79.8486 153.786 95.2655 153.786C102.057 153.786 110.288 151.824 110.288 147.965C110.288 138.295 53.7379 146.142 53.7379 126.716C53.7379 115.553 73.1956 112.504 91.2247 112.504C100.106 112.504 111.322 114.242 118.391 117.813V113.25H129.234V129.904L129.213 129.893Z" fill="#0063A6"/>
      <path d="M179.28 87.9817H177.553V88.6534C176.37 88.1949 174.621 87.8431 173.203 87.8431C170.324 87.8431 167.211 88.4188 167.211 90.5298C167.211 94.2082 176.252 92.7155 176.252 94.5493C176.252 95.285 174.93 95.6582 173.843 95.6582C171.38 95.6582 169.567 94.7199 169.29 93.3765H167.35V96.7243H169.098V95.8714C170.41 96.4578 172.585 96.8416 174.205 96.8416C177.084 96.8416 179.973 96.1486 179.973 94.1015C179.973 90.4552 170.932 91.7453 170.932 90.1354C170.932 89.2824 172.062 89.0372 173.267 89.0372C175.111 89.0372 177.052 89.7942 177.361 91.1376H179.28V87.9923V87.9817Z" fill="#0063A6"/>
      <path d="M164.386 96.5857V93.0887H162.435C162.435 93.7497 162.413 95.4556 162.413 95.4556H157.253V89.2291C157.253 89.2291 157.552 89.2291 158.074 89.2291H159.364V88.1096H151.218V89.2291H152.509C153.031 89.2291 153.319 89.2291 153.319 89.2291V95.4343C153.319 95.4343 153.031 95.4556 152.509 95.4556H151.24V96.5751H164.375L164.386 96.5857Z" fill="#0063A6"/>
      <path d="M148.35 88.099H140.205V89.2291H142.316V95.4663C142.316 95.4663 142.017 95.4663 141.506 95.4663H140.226V96.5857H148.329V95.4663H146.239V89.2398H148.35V88.1096V88.099Z" fill="#0063A6"/>
      <path d="M127.261 88.099L123.231 95.4556H121.621V96.5751H127.763V95.4556H125.609L126.419 93.8776H130.684L131.42 95.4449H129.458V96.5751H137.081V95.4556H135.439L134.927 94.496L131.441 88.099H127.261ZM128.509 90.0074L130.066 92.7582H127.038L128.52 90.0074H128.509Z" fill="#0063A6"/>
      <path d="M118.05 87.9817H116.322V88.6534C115.139 88.1949 113.39 87.8431 111.972 87.8431C109.094 87.8431 105.981 88.4188 105.981 90.5298C105.981 94.2082 115.022 92.7155 115.022 94.5493C115.022 95.285 113.71 95.6582 112.623 95.6582C110.16 95.6582 108.347 94.7199 108.07 93.3765H106.13V96.7243H107.878V95.8714C109.19 96.4578 111.365 96.8416 112.985 96.8416C115.864 96.8416 118.753 96.1486 118.753 94.1015C118.753 90.4552 109.712 91.7453 109.712 90.1354C109.712 89.2824 110.842 89.0372 112.047 89.0372C113.892 89.0372 115.832 89.7942 116.141 91.1376H118.06V87.9923L118.05 87.9817Z" fill="#0063A6"/>
      <path d="M87.3225 91.6174V89.2078C87.3225 89.2078 87.6104 89.2185 88.1435 89.2185H89.0177V88.0883H81.2879V89.2185H82.578C83.1004 89.2185 83.399 89.2398 83.399 89.2398V95.4663C83.399 95.4663 83.1004 95.4449 82.578 95.4449H81.3093V96.5644H88.9964V95.4449H87.3225V92.7262H91.9177V95.4343C91.9177 95.4343 91.6298 95.4343 91.1074 95.4343H90.2438V96.5538H97.931V95.4343H96.6515C96.1398 95.4343 95.8412 95.4023 95.8412 95.4023V89.1971C95.8412 89.1971 96.1398 89.1971 96.6515 89.1971H97.9416V88.067H90.2118V89.1971H91.0968C91.6192 89.1971 91.9071 89.1971 91.9071 89.1971V91.5747H87.3118L87.3225 91.6174Z" fill="#0063A6"/>
      <path d="M66.3828 91.3508C66.3828 90.7004 66.3828 89.2504 66.3828 89.2504C66.3828 89.2504 68.2059 89.2291 69.4001 89.2291V95.4556H67.289V96.5751H75.392V95.4556H74.1445C73.6221 95.4556 73.3342 95.4556 73.3342 95.4556V89.2291C74.603 89.2291 76.3515 89.2504 76.3515 89.2504C76.3515 89.2504 76.3622 90.7324 76.3622 91.3508H78.3026V88.099H64.4317V91.3508H66.3721H66.3828Z" fill="#0063A6"/>
      <path d="M59.1114 94.6879C59.0901 94.592 59.0688 94.464 59.0688 94.464C58.8769 93.078 58.0452 92.3637 56.6699 92.1185V92.0971C58.493 91.9479 59.8258 91.3935 59.8258 90.178C59.8258 88.8027 58.0879 88.1096 55.1666 88.1096H45.539V89.2291H46.8291C47.3515 89.2291 47.6394 89.2611 47.6394 89.2611V95.4663H45.5496V96.5857H53.6739V95.4663H52.3838C51.8614 95.4663 51.5735 95.4663 51.5735 95.4663V92.7368H53.2901C54.9853 92.7368 55.1879 92.9181 55.1879 93.6857C55.1879 95.1784 56.5206 96.831 58.5144 96.831C59.0048 96.831 60.3695 96.671 61.0092 96.4152V95.349C60.4761 95.349 59.2607 95.317 59.1114 94.6773V94.6879ZM53.578 91.6174H51.5735V89.2291H53.0769C54.996 89.2291 55.8916 89.4424 55.8916 90.3913C55.8916 91.4148 55.1133 91.6174 53.5673 91.6174H53.578Z" fill="#0063A6"/>
      <path d="M35.0478 89.0372C37.1375 89.0372 38.0971 90.114 38.0971 92.353C38.0971 94.592 37.1375 95.6581 35.0478 95.6581C32.9581 95.6581 31.9986 94.592 31.9986 92.353C31.9986 90.114 32.9581 89.0372 35.0478 89.0372ZM35.0478 87.8537C30.4526 87.8537 27.4673 89.5809 27.4673 92.353C27.4673 95.125 30.4526 96.8416 35.0478 96.8416C39.643 96.8416 42.6283 95.125 42.6283 92.353C42.6283 89.5809 39.643 87.8537 35.0478 87.8537Z" fill="#0063A6"/>
      <path d="M14.6732 88.099H7.95625V89.2291H9.25699C9.77942 89.2291 10.0673 89.2398 10.0673 89.2398V95.4343C10.0673 95.4343 9.77942 95.4556 9.25699 95.4556H7.97758V96.5751H14.4279V95.4556H13.1592C12.6368 95.4556 12.3489 95.4343 12.3489 95.4343V90.274H12.3915L18.2022 96.5751H22.4243V89.2184C22.4243 89.2184 22.7121 89.2184 23.2346 89.2184H24.4927V88.0883H18.0636V89.2184H19.3324C19.8548 89.2184 20.1533 89.2184 20.1533 89.2184V93.9416H20.1107L14.7052 88.099H14.6732Z" fill="#0063A6"/>
      <path d="M8.02025 84.7938C12.0717 40.9313 49.0148 6.57909 94.1034 6.57909C139.192 6.57909 176.21 40.9313 180.261 84.7938H8.02025Z" fill="#0063A6"/>
      <path d="M114.499 58.5339H114.713V33.564C114.713 33.564 113.231 33.5854 110.586 33.5854H104.136V27.6361H136.729V33.5854H130.385C127.731 33.5854 126.259 33.5854 126.259 33.5854V72.4582H104.882L75.4559 39.1295H75.2427V63.8115C75.2427 65.496 75.2427 66.5196 75.2427 66.5196H85.8192V72.4688H53.1089V66.5196H63.7173L63.6853 63.8115V33.5854H52.9916V27.6361H87.0773L114.489 58.5339H114.499Z" fill="white"/>
    </svg>